HIERARCHY
ROOT Hips
{
	OFFSET 0.000000 0.000000 0.000000
	CHANNELS 6 Xposition Yposition Zposition Zrotation Yrotation Xrotation 
	JOINT LHipJoint
	{
		OFFSET 0.000000 0.000000 0.000000
		CHANNELS 3 Zrotation Yrotation Xrotation
		JOINT LeftUpLeg
		{
			OFFSET 1.363060 -1.794630 0.839290
			CHANNELS 3 Zrotation Yrotation Xrotation
			JOINT LeftLeg
			{
				OFFSET 2.448110 -6.726130 0.000000
				CHANNELS 3 Zrotation Yrotation Xrotation
				JOINT LeftFoot
				{
					OFFSET 2.562200 -7.039590 0.000000
					CHANNELS 3 Zrotation Yrotation Xrotation
					JOINT LeftToeBase
					{
						OFFSET 0.157640 -0.433110 2.322550
						CHANNELS 3 Zrotation Yrotation Xrotation
						End Site
						{
							OFFSET 0.000000 0.000000 0.000000
						}
					}
				}
			}
		}
	}
	JOINT RHipJoint
	{
		OFFSET 0.000000 0.000000 0.000000
		CHANNELS 3 Zrotation Yrotation Xrotation
		JOINT RightUpLeg
		{
			OFFSET -1.305520 -1.794630 0.839290
			CHANNELS 3 Zrotation Yrotation Xrotation
			JOINT RightLeg
			{
				OFFSET -2.542530 -6.985550 0.000000
				CHANNELS 3 Zrotation Yrotation Xrotation
				JOINT RightFoot
				{
					OFFSET -2.568260 -7.056230 0.000000
					CHANNELS 3 Zrotation Yrotation Xrotation
					JOINT RightToeBase
					{
						OFFSET -0.164730 -0.452590 2.363150
						CHANNELS 3 Zrotation Yrotation Xrotation
						End Site
						{
							OFFSET 0.000000 0.000000 0.000000
						}
					}
				}
			}
		}
	}
}
MOTION
Frames: 14
Frame Time: 0.008333
4.643921 17.368802 0.480410 -171.195195 -79.577799 -169.166287 -11.279277 0.261800 -2.489710 -6.709870 20.890851 -19.707930 -2.591609 -1.229991 -5.432636 1.397139 11.381991 5.907471 2.912299 0.000000 -42.065700 9.035297 -0.578251 2.169832 4.487402 5.202072 -19.434800 2.662036 1.345037 -2.523418 0.267728 -1.619202 6.894440 -1.384800 -0.000000 -59.904500
4.637518 17.368880 0.484528 -171.573299 -79.175768 -168.955350 -11.291921 0.314237 -2.487895 -6.742064 21.164606 -19.595044 -2.602493 -1.223438 -5.289237 1.411052 11.467859 5.760567 2.900300 0.000000 -42.015100 9.038138 -0.602424 2.251756 4.403717 5.314489 -19.341903 2.672660 1.346322 -2.546431 0.293535 -1.357278 6.970085 -1.296601 -0.000000 -60.013500
4.630848 17.368878 0.489419 -171.943502 -78.763490 -168.759880 -11.306153 0.371446 -2.480827 -6.782048 21.449793 -19.478141 -2.614738 -1.218268 -5.161447 1.423903 11.549444 5.620798 2.888200 0.000000 -41.962700 9.040680 -0.628455 2.338364 4.319990 5.417699 -19.258786 2.684295 1.347357 -2.557243 0.321143 -1.087949 7.042531 -1.206800 -0.000000 -60.137400
4.623965 17.368787 0.495144 -172.306178 -78.341659 -168.579323 -11.322090 0.432862 -2.470524 -6.828582 21.747066 -19.352265 -2.628184 -1.214442 -5.050939 1.435665 11.627292 5.488603 2.876200 0.000000 -41.910500 9.043111 -0.656124 2.428148 4.234690 5.512242 -19.179445 2.696644 1.348114 -2.560403 0.350047 -0.810199 7.113690 -1.114800 0.000000 -60.276601
4.616872 17.368638 0.501739 -172.654424 -77.910851 -168.419034 -11.339570 0.497571 -2.457717 -6.880262 22.055507 -19.219230 -2.642601 -1.211795 -4.956301 1.446490 11.701953 5.363351 2.864400 0.000001 -41.857200 9.045183 -0.685275 2.520896 4.148421 5.600921 -19.102728 2.709656 1.348827 -2.560458 0.379743 -0.525981 7.187347 -1.020800 -0.000000 -60.430000
4.609781 17.368410 0.509308 -172.986805 -77.471787 -168.280880 -11.358362 0.564554 -2.444513 -6.935095 22.374105 -19.076474 -2.657619 -1.210034 -4.876292 1.456600 11.774817 5.243897 2.852800 -0.000000 -41.803900 9.047082 -0.715253 2.614790 4.060256 5.684889 -19.024049 2.723064 1.349493 -2.562283 0.409867 -0.235604 7.266324 -0.924700 0.000000 -60.597500
4.602597 17.368289 0.517907 -173.289454 -77.026345 -168.174997 -11.378159 0.632650 -2.430376 -6.990705 22.699004 -18.930934 -2.672801 -1.208790 -4.805248 1.466407 11.846733 5.127182 2.841100 0.000000 -41.741201 9.048242 -0.746025 2.710056 3.973218 5.767286 -18.945121 2.737074 1.350434 -2.569281 0.440275 0.056452 7.355938 -0.827900 0.000001 -60.777200
4.595629 17.368099 0.527581 -173.568843 -76.575046 -168.096038 -11.398574 0.700794 -2.419364 -7.044837 23.028848 -18.774569 -2.687629 -1.207674 -4.743719 1.476287 11.920907 5.013317 2.830100 0.000000 -41.679000 9.049490 -0.776122 2.802640 3.884673 5.847615 -18.857844 2.751132 1.351345 -2.585313 0.470722 0.352094 7.455857 -0.729400 -0.000000 -60.970400
4.588832 17.368060 0.538451 -173.812866 -76.119313 -168.052208 -11.419233 0.767957 -2.410810 -7.095230 23.358602 -18.614877 -2.701590 -1.206175 -4.685353 1.486748 11.998503 4.899322 2.819400 0.000000 -41.609100 9.050323 -0.805110 2.892330 3.798116 5.928088 -18.765664 2.765556 1.352490 -2.611793 0.501092 0.647077 7.570593 -0.630800 -0.000000 -61.174100
4.582275 17.368107 0.550565 -174.021422 -75.659344 -168.041162 -11.439670 0.833261 -2.406359 -7.140276 23.684575 -18.451807 -2.714187 -1.203905 -4.627996 1.498387 12.082690 4.783659 2.809400 -0.000000 -41.535001 9.051095 -0.831768 2.976736 3.713302 6.009103 -18.667369 2.780160 1.353790 -2.649385 0.531459 0.940207 7.700479 -0.532200 0.000001 -61.388500
4.575953 17.368337 0.563947 -174.193081 -75.195041 -168.061629 -11.459538 0.896249 -2.406601 -7.179141 24.003286 -18.287220 -2.725009 -1.200478 -4.569456 1.511747 12.176099 4.665540 2.800600 0.000000 -41.456500 9.051923 -0.855073 3.054367 3.631279 6.090992 -18.564179 2.795041 1.355297 -2.697593 0.561882 1.230410 7.845899 -0.434200 -0.000000 -61.612300
4.569837 17.368729 0.578610 -174.329772 -74.725245 -168.108824 -11.478476 0.956762 -2.411685 -7.212184 24.311438 -18.123532 -2.733796 -1.195619 -4.508310 1.527354 12.281200 4.543832 2.793301 -0.000000 -41.374200 9.052976 -0.873977 3.124229 3.552167 6.174280 -18.458894 2.810240 1.357050 -2.754915 0.592562 1.516799 8.007040 -0.336999 0.000000 -61.844600
4.563819 17.369360 0.594591 -174.433940 -74.247657 -168.177838 -11.496303 1.015065 -2.421246 -7.240854 24.607183 -17.963002 -2.740414 -1.189198 -4.445085 1.545662 12.400472 4.419148 2.788100 -0.000001 -41.287600 9.054364 -0.887717 3.185973 3.476080 6.259037 -18.354794 2.825905 1.359126 -2.819230 0.623718 1.799258 8.183583 -0.240800 -0.000000 -62.084700
4.557711 17.370236 0.611862 -174.509201 -73.759368 -168.262033 -11.512966 1.071699 -2.434463 -7.267382 24.890229 -17.808421 -2.745040 -1.181264 -4.381059 1.566859 12.534714 4.291985 2.785200 -0.000000 -41.197600 9.056104 -0.895876 3.240278 3.402507 6.346141 -18.256440 2.842190 1.361675 -2.888279 0.655530 2.078026 8.374996 -0.145600 -0.000000 -62.331700
